<svg id="Слой_2" data-name="Слой 2" xmlns="http://www.w3.org/2000/svg" viewBox="0 0 204.6 237.72"><defs><style>.cls-1{fill:#fc703e;}.cls-2{fill:#30339a;}.cls-3{fill:#00b4a7;}.cls-4{fill:#ae65d6;}</style></defs><title>2ebebd</title><rect class="cls-1" x="138.18" y="28.05" width="12.13" height="19.51"/><polygon class="cls-2" points="48.88 0 81.01 0 104.83 118.23 130.15 0 160.77 0 160.77 148.17 146.03 148.17 145.65 33.73 140.36 34.1 110.5 180.76 95.38 180.76 75.13 71.24 73.83 236.46 48.88 236.46 48.88 0"/><polygon class="cls-3" points="26.53 71.24 0 71.24 0 236.46 26.53 236.46 26.53 166.36 32.97 166.36 66.69 236.46 97.77 236.46 55.7 148.93 85.26 71.24 53.43 71.24 26.53 138.69 26.53 71.24"/><path class="cls-1" d="M193.81,265.73H181V234.61H145.68L188.57,63.08l6.67-.37Zm-11.45-42.9V132.11l-20.94,90.72Z" transform="translate(-47.64 -29.26)"/><path class="cls-4" d="M420.15,86.48" transform="translate(-47.64 -29.26)"/><path class="cls-4" d="M193.78,176.77l52,.16v17h-35v17.59a57.75,57.75,0,0,1,20,0c4.61.83,7.82,1.45,11.17,3.83,6.07,4.3,7.84,11,8.86,14.91,1,3.72,3.53,13.44-1.92,22.95A28.07,28.07,0,0,1,237.3,264,29.08,29.08,0,0,1,220,266.65l-26.47-.77Zm16.89,49.92V251h15.79a8.56,8.56,0,0,0,5.39-1.53c3.77-2.82,3.28-8.44,3.08-10.71a19.56,19.56,0,0,0-5.78-11.85Z" transform="translate(-47.64 -29.26)"/></svg>